<?xml version="1.0" encoding="utf-8"?>
<!-- Generator: Adobe Illustrator 27.5.0, SVG Export Plug-In . SVG Version: 6.00 Build 0)  -->
<svg version="1.1" id="Layer_1" xmlns="http://www.w3.org/2000/svg" xmlns:xlink="http://www.w3.org/1999/xlink" x="0px" y="0px"
	 viewBox="0 0 1000 1000" style="enable-background:new 0 0 1000 1000;" xml:space="preserve">
<g>
	<rect x="439.472" y="441" style="fill-rule:evenodd;clip-rule:evenodd;fill:#FFFFFF;" width="120" height="120"/>
	<path style="fill-rule:evenodd;clip-rule:evenodd;fill:#FFFFFF;" d="M521.056,530.49c-4.833,0-7.25,0-7.25,0
		c-7.065-22.753-7.065-47.113,0-69.866C527.507,481.324,530.215,507.418,521.056,530.49"/>
	<path d="M514.247,529.89h6.403c4.428-11.333,5.98-23.391,4.759-35.161c-1.192-11.486-5.026-22.699-11.405-32.701
		c-3.264,10.934-4.897,22.23-4.897,33.529C509.106,507.133,510.82,518.706,514.247,529.89 M521.056,531.09h-7.69l-0.132-0.424
		c-3.552-11.437-5.327-23.275-5.327-35.109c0-11.834,1.776-23.672,5.327-35.109l0.375-1.206l0.696,1.052
		c6.904,10.431,11.039,22.223,12.294,34.313c1.254,12.087-0.372,24.476-4.988,36.104l-0.151,0.38H521.056z"/>
	<path style="fill-rule:evenodd;clip-rule:evenodd;fill:#FFFFFF;" d="M501.284,530.49c-4.263,0-6.395,0-6.395,0
		c-6.232-20.069-6.232-41.557,0-61.627C506.974,487.122,509.363,510.139,501.284,530.49"/>
	<path d="M495.33,529.89h5.548c3.888-9.973,5.25-20.581,4.175-30.937c-1.045-10.071-4.396-19.904-9.966-28.683
		c-2.848,9.591-4.272,19.497-4.272,29.406C490.815,509.864,492.32,520.048,495.33,529.89 M501.284,531.09h-6.835l-0.132-0.424
		c-3.135-10.096-4.702-20.544-4.702-30.989c0-10.445,1.568-20.894,4.702-30.989l0.375-1.206l0.696,1.052
		c6.096,9.211,9.748,19.622,10.855,30.298c1.107,10.673-0.328,21.612-4.404,31.879l-0.151,0.38H501.284z"/>
	<defs>
		<filter id="Adobe_OpacityMaskFilter" filterUnits="userSpaceOnUse" x="496.434" y="480.56" width="3.702" height="49.93">
			<feColorMatrix  type="matrix" values="1 0 0 0 0  0 1 0 0 0  0 0 1 0 0  0 0 0 1 0"/>
		</filter>
	</defs>
	<mask maskUnits="userSpaceOnUse" x="496.434" y="480.56" width="3.702" height="49.93" id="SVGID_1_">
		<g style="filter:url(#Adobe_OpacityMaskFilter);">
			
				<linearGradient id="SVGID_00000001649313609234332430000011085640591041266353_" gradientUnits="userSpaceOnUse" x1="-95.0968" y1="575.9526" x2="-104.2768" y2="503.4227" gradientTransform="matrix(1 0 0 1 598.434 -30.5099)">
				<stop  offset="0" style="stop-color:#FFFFFF"/>
				<stop  offset="1" style="stop-color:#000000"/>
			</linearGradient>
			
				<rect x="496.434" y="480.56" style="fill:url(#SVGID_00000001649313609234332430000011085640591041266353_);" width="3.702" height="49.93"/>
		</g>
	</mask>
	<path style="mask:url(#SVGID_1_);fill-rule:evenodd;clip-rule:evenodd;fill:#FFFFFF;" d="M496.434,480.56
		c0,0,4.293,18.625,1.652,49.93h1.314C499.4,530.49,502.35,504.596,496.434,480.56"/>
	<path style="fill-rule:evenodd;clip-rule:evenodd;fill:#FFFFFF;" d="M503.456,530.49c4.263,0,6.395,0,6.395,0
		c6.232-20.069,6.232-41.557,0-61.627C497.766,487.122,495.377,510.139,503.456,530.49"/>
	<path d="M509.851,531.09h-6.8l-0.151-0.38c-4.076-10.267-5.511-21.206-4.404-31.879c1.108-10.676,4.759-21.088,10.856-30.298
		l0.697-1.052l0.374,1.206c3.135,10.095,4.702,20.544,4.702,30.989c0,10.445-1.568,20.894-4.702,30.989l-0.132,0.424H509.851z
		 M503.862,529.89h5.548c3.01-9.842,4.515-20.026,4.515-30.213c0-9.909-1.424-19.815-4.272-29.406
		c-5.57,8.779-8.921,18.611-9.966,28.683C498.612,509.309,499.974,519.917,503.862,529.89z"/>
	<path style="fill-rule:evenodd;clip-rule:evenodd;fill:#FFFFFF;" d="M517.43,530.49c-1.561-20.314,5.496-40.349,19.444-55.2
		c-7.832,15.412-1.019,35.538-9.063,55.2H517.43z"/>
	<path d="M521.901,501.041c-3.225,9.155-4.596,18.963-3.914,28.849h9.422c3.848-9.637,4.141-19.424,4.417-28.691
		c0.242-8.091,0.472-15.792,3.017-22.734C529.147,485.195,524.784,492.857,521.901,501.041 M516.833,530.534
		c-0.787-10.239,0.599-20.41,3.939-29.892c3.339-9.481,8.635-18.275,15.666-25.763l0.97,0.68
		c-3.846,7.568-4.109,16.357-4.387,25.673c-0.283,9.492-0.583,19.523-4.658,29.483l-0.153,0.375h-11.336L516.833,530.534z"/>
	<defs>
		
			<filter id="Adobe_OpacityMaskFilter_00000028302033213421379590000013823751495892291720_" filterUnits="userSpaceOnUse" x="502.259" y="479.079" width="5.453" height="51.411">
			<feColorMatrix  type="matrix" values="1 0 0 0 0  0 1 0 0 0  0 0 1 0 0  0 0 0 1 0"/>
		</filter>
	</defs>
	
		<mask maskUnits="userSpaceOnUse" x="502.259" y="479.079" width="5.453" height="51.411" id="SVGID_00000038400457615529542730000001752174538132598930_">
		<g style="filter:url(#Adobe_OpacityMaskFilter_00000028302033213421379590000013823751495892291720_);">
			
				<linearGradient id="SVGID_00000145761066975665080650000008044713704199861642_" gradientUnits="userSpaceOnUse" x1="-92.3878" y1="585.7772" x2="-104.7479" y2="495.1572" gradientTransform="matrix(1 0 0 1 604.2586 -30.5099)">
				<stop  offset="0" style="stop-color:#FFFFFF"/>
				<stop  offset="1" style="stop-color:#000000"/>
			</linearGradient>
			
				<rect x="502.259" y="479.079" style="fill:url(#SVGID_00000145761066975665080650000008044713704199861642_);" width="5.453" height="51.411"/>
		</g>
	</mask>
	
		<path style="mask:url(#SVGID_00000038400457615529542730000001752174538132598930_);fill-rule:evenodd;clip-rule:evenodd;fill:#FFFFFF;" d="
		M507.712,479.079c0,0-10.546,23.563-2.307,51.411h1.249C506.654,530.49,498.977,511.498,507.712,479.079"/>
	<path style="fill-rule:evenodd;clip-rule:evenodd;" d="M490.689,486.589c12.509,0,22.65,10.141,22.65,22.65
		c0,12.509-10.141,22.65-22.65,22.65c-12.509,0-22.65-10.141-22.65-22.65C468.04,496.729,478.18,486.589,490.689,486.589
		 M496.79,481.501c3.602,0.789,6.948,2.261,9.895,4.274l2.166-2.166c0.456-0.456,1.203-0.456,1.659,0l6.388,6.388
		c0.456,0.456,0.456,1.203,0,1.659l-2.284,2.284c1.923,3.001,3.297,6.387,3.981,10.018h3.059c0.646,0,1.174,0.528,1.174,1.174v9.033
		c0,0.645-0.528,1.174-1.174,1.174h-3.227c-0.789,3.602-2.261,6.948-4.274,9.895l2.166,2.166c0.456,0.456,0.456,1.203,0,1.659
		l-6.388,6.388c-0.456,0.456-1.203,0.456-1.659,0l-2.284-2.284c-3.001,1.923-6.387,3.297-10.017,3.981v3.059
		c0,0.646-0.528,1.174-1.173,1.174h-9.034c-0.645,0-1.173-0.528-1.173-1.174v-3.227c-3.602-0.789-6.948-2.261-9.896-4.274
		l-2.166,2.166c-0.457,0.456-1.203,0.456-1.66,0l-6.388-6.388c-0.456-0.456-0.456-1.203,0-1.659l2.284-2.284
		c-1.923-3.001-3.297-6.387-3.981-10.018h-3.059c-0.646,0-1.174-0.528-1.174-1.173v-9.033c0-0.645,0.528-1.173,1.174-1.173h3.227
		c0.789-3.602,2.261-6.948,4.275-9.895l-2.166-2.166c-0.456-0.457-0.456-1.203,0-1.66l6.388-6.387c0.456-0.456,1.203-0.456,1.659,0
		l2.285,2.284c3.001-1.923,6.387-3.297,10.017-3.98v-3.06c0-0.646,0.528-1.174,1.174-1.174h9.033c0.645,0,1.173,0.528,1.173,1.174
		V481.501z"/>
	<path style="fill-rule:evenodd;clip-rule:evenodd;fill:#FFFFFF;" d="M490.689,489.385c10.965,0,19.854,8.889,19.854,19.853
		c0,10.965-8.889,19.854-19.854,19.854c-10.965,0-19.853-8.889-19.853-19.854C470.836,498.273,479.725,489.385,490.689,489.385"/>
	<path d="M504.304,495.624c-3.484-3.484-8.298-5.639-13.615-5.639c-5.317,0-10.131,2.155-13.614,5.639
		c-3.484,3.483-5.639,8.298-5.639,13.615c0,5.317,2.155,10.131,5.639,13.615c3.483,3.484,8.298,5.639,13.614,5.639
		c5.317,0,10.131-2.155,13.615-5.639c3.483-3.484,5.639-8.298,5.639-13.615C509.943,503.921,507.788,499.107,504.304,495.624
		 M490.689,488.784c5.648,0,10.762,2.29,14.463,5.991c3.702,3.701,5.991,8.815,5.991,14.463c0,5.648-2.29,10.761-5.991,14.463
		c-3.702,3.701-8.815,5.991-14.463,5.991c-5.648,0-10.761-2.29-14.463-5.991c-3.702-3.702-5.991-8.815-5.991-14.463
		c0-5.648,2.289-10.761,5.991-14.463C479.928,491.074,485.042,488.784,490.689,488.784z"/>
	<path style="fill-rule:evenodd;clip-rule:evenodd;" d="M499.805,526.88c-2.73,1.413-5.829,2.212-9.115,2.212
		c-3.102,0-6.038-0.712-8.654-1.981c0.01-0.016,0.965-1.48,5.414-0.337c4.474,1.149,3.697-0.373,4.785-0.963
		c1.087-0.591,1.864-1.025,3.014,0.217C496.398,527.271,499.576,525.372,499.805,526.88"/>
	<path style="fill-rule:evenodd;clip-rule:evenodd;" d="M495.716,490.027c8.531,2.226,14.827,9.983,14.827,19.211
		c0,4.584-1.554,8.804-4.163,12.164c-0.027-0.032-1.182-1.354-3.209-0.065c-2.05,1.305-3.604,1.18-3.604,1.18
		s0.622-0.497,0.622-4.225c0-3.728,2.734-3.604,6.338-3.977c3.604-0.373,2.113-2.548,2.734-4.536
		c0.621-1.988-1.118-0.932-2.548-2.361c-1.429-1.429-6.524,0.248-5.157-2.609c1.367-2.858,0.932-1.243-2.361-3.853
		c-3.293-2.61,0.062-2.05,1.243-4.349c1.18-2.299-0.124-2.982-3.107-3.914C494.372,491.768,495.695,490.054,495.716,490.027"/>
	<path style="fill-rule:evenodd;clip-rule:evenodd;" d="M490.689,489.385c1.301,0,2.573,0.127,3.805,0.366
		c-0.025,0.057-0.836,1.803-4.076,1.436c-3.293-0.373-5.53-0.248-5.655,1.429c-0.124,1.678-2.112,1.056-1.988,2.921
		c0.124,1.864,2.734,1.739,3.852,4.722c1.118,2.983-2.423,4.288-0.684,7.519c1.74,3.231-0.373,2.548,0.311,7.146
		c0.684,4.598,1.367,4.723,1.367,4.723s-5.655,2.299-4.723-4.163c0.932-6.462-3.666-4.66-5.468-6.4
		c-1.802-1.74,1.242-6.524,0.621-8.078c-0.621-1.553-3.915-2.112-3.728,1.491c0.185,3.584-3.231,3.782-3.269,3.785
		C472.485,496.718,480.73,489.385,490.689,489.385"/>
	<path style="fill-rule:evenodd;clip-rule:evenodd;" d="M486.892,493.532c0,0-1.988-0.435-1.243,1.709
		c0.745,2.144-0.187,1.833,1.429,2.921c1.616,1.087,0.839,2.112,0.435,3.542c-0.404,1.429-0.311,2.858,1.274,3.79
		c1.585,0.932,2.268,0.839,1.119-1.491c-1.149-2.33-0.745-0.839,0.249-2.796c0.994-1.957,2.175-2.89,0.404-3.262
		c-1.771-0.373-3.449-0.093-2.796-1.367c0.653-1.274,2.082-2.113,2.082-2.113S489.284,491.947,486.892,493.532"/>
	<path style="fill-rule:evenodd;clip-rule:evenodd;fill:#FFFFFF;" d="M495.716,490.027c8.531,2.226,14.827,9.983,14.827,19.211
		c0,4.583-1.553,8.804-4.162,12.165c-1.762,2.269-4.005,4.146-6.576,5.477c-2.73,1.413-5.829,2.212-9.115,2.212
		c-3.102,0-6.038-0.712-8.654-1.981c-6.629-3.216-11.2-10.01-11.2-17.873c0-1.006,0.075-1.994,0.219-2.959
		c1.429-9.562,9.676-16.895,19.635-16.895c1.301,0,2.574,0.125,3.805,0.364C494.906,489.829,495.314,489.921,495.716,490.027
		 M513.339,509.238c0-12.509-10.141-22.65-22.65-22.65c-12.509,0-22.649,10.141-22.649,22.65c0,0.469,0.014,0.935,0.042,1.398
		c0.722,11.858,10.568,21.252,22.607,21.252c12.04,0,21.885-9.394,22.607-21.252C513.325,510.174,513.339,509.708,513.339,509.238z"
		/>
	<path style="fill-rule:evenodd;clip-rule:evenodd;fill:#FFFFFF;" d="M510.635,500.304h16.552c4.788,0,8.705,3.917,8.705,8.705
		c0,4.788-3.917,8.705-8.705,8.705h-16.552c-4.788,0-8.705-3.917-8.705-8.705C501.93,504.221,505.847,500.304,510.635,500.304"/>
	<path d="M527.187,500.664h-16.552c-2.294,0-4.381,0.939-5.893,2.452c-1.512,1.513-2.451,3.599-2.451,5.893
		c0,2.294,0.939,4.381,2.451,5.893c1.512,1.512,3.599,2.452,5.893,2.452h16.552c2.294,0,4.381-0.939,5.893-2.451
		c1.512-1.512,2.451-3.599,2.451-5.893c0-2.294-0.939-4.381-2.451-5.893C531.567,501.603,529.481,500.664,527.187,500.664
		 M510.635,499.944h16.552c2.493,0,4.76,1.02,6.402,2.662c1.643,1.643,2.662,3.909,2.662,6.403s-1.02,4.76-2.662,6.403
		c-1.643,1.642-3.909,2.662-6.402,2.662h-16.552c-2.493,0-4.76-1.02-6.402-2.663c-1.642-1.643-2.662-3.909-2.662-6.402
		s1.02-4.76,2.662-6.402C505.875,500.964,508.142,499.944,510.635,499.944z"/>
	<path style="fill-rule:evenodd;clip-rule:evenodd;" d="M508.193,503.798h17.145c0.815,0,1.481,0.666,1.481,1.481v4.333
		c0,0.815-0.666,1.481-1.481,1.481h-17.145c-0.815,0-1.481-0.666-1.481-1.481v-4.333
		C506.712,504.464,507.378,503.798,508.193,503.798"/>
	<path style="fill-rule:evenodd;clip-rule:evenodd;" d="M534.094,502.646c2.065,0,3.74,2.264,3.74,5.057s-1.674,5.057-3.74,5.057
		s-3.739-2.264-3.739-5.057S532.029,502.646,534.094,502.646"/>
	<path style="fill-rule:evenodd;clip-rule:evenodd;" d="M503.811,502.646c0.269,0,0.531,0.038,0.783,0.111
		c-1.64,1.585-2.663,3.805-2.663,6.252c0,1.249,0.267,2.438,0.746,3.514c-1.511-0.65-2.605-2.562-2.605-4.82
		C500.071,504.91,501.745,502.646,503.811,502.646"/>
	<path style="fill-rule:evenodd;clip-rule:evenodd;fill:#FFFFFF;" d="M511.432,505.134c0.846,0,1.532,0.945,1.532,2.11
		c0,1.165-0.686,2.11-1.532,2.11c-0.846,0-1.532-0.945-1.532-2.11C509.9,506.079,510.586,505.134,511.432,505.134"/>
	<path style="fill-rule:evenodd;clip-rule:evenodd;fill:#FFFFFF;" d="M520.566,504.93c0.965,0,1.747,1.077,1.747,2.406
		c0,1.329-0.782,2.406-1.747,2.406c-0.965,0-1.747-1.077-1.747-2.406C518.819,506.008,519.601,504.93,520.566,504.93"/>
	<path style="fill-rule:evenodd;clip-rule:evenodd;fill:#FFFFFF;" d="M527.87,517.687v11.786c0,4.927-4.031,8.959-8.959,8.959h0
		c-4.927,0-8.959-4.031-8.959-8.959v-11.786c0.225,0.018,0.453,0.027,0.683,0.027h16.552
		C527.416,517.713,527.644,517.704,527.87,517.687"/>
	<path d="M527.51,529.472v-11.406l-0.323,0.007h-16.552l-0.323-0.007v11.406c0,2.364,0.968,4.514,2.526,6.073
		c1.558,1.558,3.708,2.526,6.073,2.526c2.364,0,4.514-0.968,6.073-2.526C526.542,533.987,527.51,531.836,527.51,529.472
		 M528.229,517.687l0,11.786c0,2.563-1.049,4.893-2.737,6.582c-1.689,1.688-4.019,2.737-6.582,2.737
		c-2.563,0-4.893-1.048-6.582-2.737c-1.688-1.689-2.737-4.019-2.737-6.582v-11.786c0-0.199,0.161-0.36,0.36-0.36l0.354,0.022
		l0.329,0.005h16.552l0.329-0.005l0.327-0.02c0.198-0.014,0.371,0.134,0.385,0.332L528.229,517.687z"/>
	<path style="fill-rule:evenodd;clip-rule:evenodd;" d="M516.989,519.703L516.989,519.703c2.365,0,4.299,1.934,4.299,4.298v5.448
		c0,2.364-1.934,4.299-4.299,4.299h0c-2.364,0-4.298-1.934-4.298-4.299v-5.448C512.69,521.637,514.624,519.703,516.989,519.703"/>
	<polygon style="fill-rule:evenodd;clip-rule:evenodd;fill:#FFFFFF;" points="509.952,521.939 506.527,525.364 504.401,523.238 
		509.952,517.687 	"/>
	<path d="M506.527,524.855l3.065-3.065v-3.234l-4.682,4.683L506.527,524.855z M510.207,522.194l-3.425,3.425
		c-0.14,0.14-0.369,0.14-0.509,0l-2.126-2.126c-0.14-0.14-0.14-0.369,0-0.509l5.551-5.552c0.14-0.14,0.369-0.14,0.509,0
		c0.07,0.07,0.105,0.162,0.105,0.255l0,4.253C510.312,522.039,510.272,522.128,510.207,522.194z"/>
	
		<rect x="502.987" y="516.82" transform="matrix(0.7071 -0.7071 0.7071 0.7071 -220.7836 509.3683)" style="fill-rule:evenodd;clip-rule:evenodd;fill:#FFFFFF;" width="3.007" height="8.765"/>
	<path d="M506.527,524.855l1.617-1.617l-5.689-5.689l-1.617,1.617L506.527,524.855z M508.907,523.493l-2.126,2.126
		c-0.14,0.14-0.369,0.14-0.509,0l-6.198-6.198c-0.14-0.14-0.14-0.369,0-0.509l2.126-2.126c0.14-0.14,0.369-0.14,0.509,0l6.198,6.198
		C509.048,523.124,509.048,523.353,508.907,523.493z"/>
	
		<rect x="532.729" y="518.888" transform="matrix(0.866 -0.5 0.5 0.866 -188.2437 338.3038)" style="fill-rule:evenodd;clip-rule:evenodd;fill:#FFFFFF;" width="8.765" height="3.007"/>
	<path d="M533.055,521.413l1.145,1.982l6.969-4.024l-1.144-1.982L533.055,521.413z M533.757,524.065l-1.504-2.604
		c-0.099-0.172-0.041-0.391,0.131-0.491l7.591-4.383c0.172-0.099,0.392-0.041,0.491,0.131l1.503,2.605
		c0.098,0.171,0.04,0.39-0.131,0.489l-7.591,4.383C534.076,524.295,533.856,524.237,533.757,524.065z"/>
	<path style="fill-rule:evenodd;clip-rule:evenodd;" d="M506.527,520.47c1.352,0,2.447,1.096,2.447,2.447
		c0,1.352-1.096,2.447-2.447,2.447c-1.351,0-2.447-1.096-2.447-2.447C504.08,521.566,505.175,520.47,506.527,520.47"/>
	<path style="fill-rule:evenodd;clip-rule:evenodd;" d="M501.391,515.656c1.352,0,2.447,1.095,2.447,2.447
		c0,1.352-1.096,2.447-2.447,2.447c-1.352,0-2.447-1.096-2.447-2.447C498.944,516.752,500.04,515.656,501.391,515.656"/>
	<path style="fill-rule:evenodd;clip-rule:evenodd;fill:#FFFFFF;" d="M534.068,523.885l2.126-2.126l-5.019-5.019
		c-1.005,0.522-2.123,0.854-3.305,0.947L534.068,523.885z"/>
	<path d="M536.448,522.014l-2.126,2.126c-0.14,0.14-0.369,0.14-0.509,0l-6.198-6.198c-0.058-0.059-0.097-0.138-0.104-0.227
		c-0.015-0.198,0.133-0.371,0.331-0.387c0.56-0.044,1.105-0.144,1.629-0.294c0.531-0.152,1.042-0.357,1.526-0.607
		c0.137-0.078,0.316-0.059,0.433,0.058l5.019,5.019C536.589,521.645,536.589,521.873,536.448,522.014 M534.068,523.376l1.617-1.617
		l-4.581-4.581c-0.458,0.221-0.939,0.405-1.436,0.548c-0.333,0.095-0.674,0.172-1.021,0.229L534.068,523.376z"/>
	<path style="fill-rule:evenodd;clip-rule:evenodd;" d="M534.068,518.99c1.352,0,2.447,1.096,2.447,2.447
		c0,1.352-1.096,2.447-2.447,2.447c-1.352,0-2.447-1.096-2.447-2.447C531.62,520.086,532.716,518.99,534.068,518.99"/>
	<path style="fill-rule:evenodd;clip-rule:evenodd;" d="M540.907,515.753c1.352,0,2.447,1.096,2.447,2.448
		c0,1.352-1.096,2.447-2.447,2.447c-1.352,0-2.448-1.096-2.448-2.447C538.46,516.849,539.556,515.753,540.907,515.753"/>
	<path style="fill-rule:evenodd;clip-rule:evenodd;fill:#FFFFFF;" d="M541.517,512.19h1.023c0.514,0,0.935,0.421,0.935,0.935v5.874
		c0,0.514-0.421,0.935-0.935,0.935h-1.023c-0.514,0-0.935-0.421-0.935-0.935v-5.874C540.582,512.611,541.003,512.19,541.517,512.19"
		/>
	<path d="M542.54,512.31h-1.023c-0.224,0-0.428,0.092-0.575,0.239c-0.148,0.148-0.24,0.352-0.24,0.576v5.874
		c0,0.224,0.092,0.428,0.24,0.575c0.147,0.148,0.351,0.24,0.575,0.24h1.023c0.224,0,0.428-0.092,0.576-0.24
		c0.148-0.148,0.24-0.352,0.24-0.575v-5.874c0-0.224-0.092-0.428-0.239-0.575C542.968,512.402,542.764,512.31,542.54,512.31
		 M541.517,512.07h1.023c0.29,0,0.554,0.119,0.745,0.31c0.191,0.191,0.31,0.456,0.31,0.745v5.874c0,0.29-0.119,0.554-0.31,0.745
		c-0.191,0.191-0.455,0.31-0.745,0.31h-1.023c-0.289,0-0.554-0.119-0.745-0.31c-0.191-0.19-0.31-0.455-0.31-0.745v-5.874
		c0-0.289,0.119-0.553,0.31-0.744C540.964,512.189,541.228,512.07,541.517,512.07z"/>
	<polygon style="fill-rule:evenodd;clip-rule:evenodd;" points="542.379,505.622 542.379,512.19 541.678,512.19 541.678,505.622 
		541.196,505.066 541.196,503.956 541.662,502.461 542.396,502.461 542.861,503.956 542.861,505.066 	"/>
	<path style="fill-rule:evenodd;clip-rule:evenodd;" d="M541.408,513.271L541.408,513.271c0.121,0,0.219,0.098,0.219,0.219v5.143
		c0,0.121-0.098,0.219-0.219,0.219c-0.121,0-0.219-0.098-0.219-0.219v-5.143C541.188,513.37,541.287,513.271,541.408,513.271"/>
	<path style="fill-rule:evenodd;clip-rule:evenodd;" d="M542.649,513.271L542.649,513.271c0.121,0,0.219,0.098,0.219,0.219v5.143
		c0,0.121-0.098,0.219-0.219,0.219c-0.121,0-0.219-0.098-0.219-0.219v-5.143C542.43,513.37,542.529,513.271,542.649,513.271"/>
	<path style="fill-rule:evenodd;clip-rule:evenodd;fill:#FFFFFF;" d="M501.294,520.108c0.345-0.199,0.786-0.081,0.985,0.264
		c0.199,0.345,0.081,0.786-0.264,0.985c-0.345,0.199-0.786,0.081-0.985-0.264C500.831,520.748,500.949,520.307,501.294,520.108
		 M496.535,507.288c0.842,0.208,1.602,0.745,2.069,1.555c0.672,1.163,0.556,2.564-0.182,3.587l0.007,0.012l4.397,7.615
		c0.372,0.645,0.149,1.476-0.495,1.848c-0.644,0.372-1.476,0.149-1.848-0.495l-4.397-7.615l-0.007-0.012
		c-1.255,0.128-2.526-0.473-3.198-1.636c-0.464-0.804-0.552-1.723-0.318-2.551l0.554,0.96l0.663,1.148h1.326h1.326l0.663-1.148
		l0.663-1.148l-0.663-1.148L496.535,507.288z"/>
	<path d="M501.777,520.277c-0.116-0.031-0.246-0.018-0.358,0.046c-0.113,0.065-0.189,0.17-0.22,0.287
		c-0.031,0.117-0.018,0.246,0.046,0.358c0.066,0.112,0.171,0.188,0.287,0.22c0.117,0.031,0.246,0.018,0.358-0.047
		c0.113-0.065,0.189-0.17,0.22-0.287c0.031-0.117,0.018-0.246-0.046-0.358C501.999,520.384,501.893,520.308,501.777,520.277
		 M501.169,519.893c0.233-0.134,0.497-0.162,0.736-0.098c0.239,0.064,0.455,0.22,0.589,0.452c0.134,0.233,0.162,0.498,0.098,0.737
		c-0.064,0.24-0.22,0.455-0.452,0.589c-0.233,0.134-0.498,0.162-0.737,0.098c-0.24-0.064-0.455-0.22-0.589-0.452
		c-0.134-0.233-0.161-0.498-0.098-0.737C500.781,520.242,500.937,520.027,501.169,519.893z M497.581,508.053
		c-0.154-0.116-0.318-0.216-0.489-0.3l0.955,1.653l-1.471,2.546h-2.938l-0.944-1.635c-0.011,0.185-0.005,0.371,0.018,0.556
		c0.049,0.394,0.176,0.784,0.385,1.147c0.306,0.529,0.746,0.933,1.251,1.191c0.522,0.267,1.116,0.381,1.706,0.321l0.164-0.016
		c1.423,2.599,2.995,5.194,4.48,7.766c0.151,0.263,0.397,0.44,0.67,0.513c0.274,0.073,0.575,0.043,0.836-0.108
		c0.262-0.152,0.44-0.398,0.513-0.671c0.073-0.274,0.043-0.575-0.108-0.837c-1.491-2.583-2.962-5.204-4.486-7.764l0.095-0.132
		c0.346-0.48,0.545-1.051,0.574-1.637c0.028-0.568-0.101-1.15-0.406-1.679C498.177,508.6,497.9,508.293,497.581,508.053z
		 M496.595,507.046c0.461,0.114,0.9,0.32,1.285,0.609c0.371,0.279,0.694,0.636,0.94,1.063c0.356,0.615,0.506,1.293,0.473,1.953
		c-0.032,0.628-0.23,1.241-0.576,1.77l4.325,7.491c0.221,0.383,0.265,0.82,0.159,1.216c-0.106,0.396-0.363,0.753-0.744,0.973
		c-0.383,0.221-0.82,0.265-1.216,0.16c-0.394-0.105-0.75-0.361-0.97-0.741l-4.328-7.495c-0.63,0.035-1.26-0.1-1.819-0.386
		c-0.589-0.301-1.101-0.77-1.456-1.385c-0.245-0.426-0.393-0.88-0.45-1.337c-0.059-0.475-0.02-0.954,0.108-1.407l0.161-0.568
		l1.44,2.494h2.365l1.181-2.046l-1.444-2.502L496.595,507.046z"/>
	<path style="fill-rule:evenodd;clip-rule:evenodd;" d="M497.812,514.077L497.812,514.077c0.104-0.06,0.237-0.024,0.297,0.079
		l3.021,5.233c0.06,0.104,0.024,0.237-0.08,0.297v0c-0.104,0.06-0.237,0.024-0.297-0.08l-3.022-5.233
		C497.672,514.27,497.708,514.136,497.812,514.077"/>
</g>
<g>
	<rect style="fill-rule:evenodd;clip-rule:evenodd;fill:#FFFFFF;" width="1000" height="1000"/>
	<path style="fill-rule:evenodd;clip-rule:evenodd;fill:#FFFFFF;" d="M679.867,745.751c-40.279,0-60.419,0-60.419,0
		c-58.878-189.604-58.878-392.61,0-582.216C733.626,336.035,756.192,553.484,679.867,745.751"/>
	<path d="M623.124,740.75h53.357c36.9-94.443,49.833-194.924,39.655-293.01c-9.931-95.718-41.887-189.163-95.038-272.504
		c-27.203,91.115-40.808,185.249-40.808,279.407C580.29,551.11,594.57,647.554,623.124,740.75 M679.867,750.752h-64.084
		l-1.098-3.536c-29.597-95.308-44.396-193.956-44.396-292.574c0-98.615,14.799-197.263,44.396-292.571l3.122-10.053l5.801,8.763
		c57.536,86.927,91.996,185.193,102.449,285.943c10.45,100.729-3.099,203.965-41.563,300.863l-1.254,3.165H679.867z"/>
	<path style="fill-rule:evenodd;clip-rule:evenodd;fill:#FFFFFF;" d="M515.103,745.753c-35.528,0-53.293,0-53.293,0
		c-51.933-167.246-51.933-346.311,0-513.555C562.522,384.354,582.428,576.159,515.103,745.753"/>
	<path d="M465.485,740.752h46.233c32.4-83.107,43.749-171.508,34.793-257.806c-8.71-83.927-36.633-165.865-83.051-239.023
		c-23.733,79.928-35.601,162.478-35.601,245.051C427.859,573.865,440.403,658.735,465.485,740.752 M515.103,750.754h-56.959
		l-1.099-3.536c-26.124-84.13-39.187-171.203-39.187-258.243c0-87.04,13.063-174.113,39.187-258.241l3.123-10.054l5.802,8.764
		c50.803,76.755,81.231,163.521,90.463,252.487c9.227,88.939-2.738,180.097-36.702,265.659l-1.254,3.165H515.103z"/>
	<defs>
		
			<filter id="Adobe_OpacityMaskFilter_00000019666211841522098160000015114151768074753211_" filterUnits="userSpaceOnUse" x="474.686" y="329.669" width="30.846" height="416.081">
			<feColorMatrix  type="matrix" values="1 0 0 0 0  0 1 0 0 0  0 0 1 0 0  0 0 0 1 0"/>
		</filter>
	</defs>
	
		<mask maskUnits="userSpaceOnUse" x="474.686" y="329.669" width="30.846" height="416.081" id="SVGID_00000144316675089208764360000016520347455910505615_">
		<g style="filter:url(#Adobe_OpacityMaskFilter_00000019666211841522098160000015114151768074753211_);">
			
				<linearGradient id="SVGID_00000165946782430613890240000012643111517216795556_" gradientUnits="userSpaceOnUse" x1="-66.2211" y1="900.866" x2="-142.7213" y2="296.4499" gradientTransform="matrix(1 0 0 1 598.434 -30.5099)">
				<stop  offset="0" style="stop-color:#FFFFFF"/>
				<stop  offset="1" style="stop-color:#000000"/>
			</linearGradient>
			
				<rect x="474.686" y="329.669" style="fill:url(#SVGID_00000165946782430613890240000012643111517216795556_);" width="30.848" height="416.081"/>
		</g>
	</mask>
	
		<path style="mask:url(#SVGID_00000144316675089208764360000016520347455910505615_);fill-rule:evenodd;clip-rule:evenodd;fill:#FFFFFF;" d="
		M474.686,329.669c0,0,35.772,155.207,13.767,416.081h10.951C499.403,745.751,523.985,529.97,474.686,329.669"/>
	<path style="fill-rule:evenodd;clip-rule:evenodd;fill:#FFFFFF;" d="M533.202,745.753c35.527,0,53.294,0,53.294,0
		c51.933-167.246,51.933-346.311,0-513.555C485.783,384.354,465.877,576.159,533.202,745.753"/>
	<path d="M586.496,750.754h-56.665l-1.257-3.165c-33.963-85.562-45.928-176.719-36.701-265.659
		c9.232-88.966,39.659-175.732,90.463-252.487l5.805-8.764l3.12,10.054c26.121,84.128,39.187,171.201,39.187,258.241
		c0,87.04-13.065,174.113-39.187,258.243l-1.096,3.536H586.496z M536.587,740.752h46.233
		c25.08-82.018,37.625-166.888,37.625-251.778c0-82.573-11.87-165.124-35.601-245.051c-46.417,73.158-74.341,155.096-83.05,239.023
		C492.84,569.245,504.187,657.646,536.587,740.752z"/>
	<path style="fill-rule:evenodd;clip-rule:evenodd;fill:#FFFFFF;" d="M649.657,745.751
		c-13.007-169.287,45.803-336.239,162.035-460.004c-65.27,128.433-8.494,296.147-75.524,460.004H649.657z"/>
	<path d="M686.915,500.339c-26.872,76.288-38.303,158.023-32.615,240.411h78.518c32.065-80.31,34.508-161.868,36.812-239.09
		c2.014-67.429,3.936-131.604,25.143-189.449C747.294,368.292,710.934,432.145,686.915,500.339 M644.677,746.122
		c-6.555-85.328,4.992-170.081,32.828-249.104c27.829-79.009,71.955-152.294,130.554-214.689l8.086,5.664
		c-32.047,63.064-34.238,136.312-36.555,213.941c-2.362,79.096-4.861,162.692-38.813,245.693l-1.278,3.125h-94.465L644.677,746.122z
		"/>
	<defs>
		
			<filter id="Adobe_OpacityMaskFilter_00000081643043230289096160000011095072818505378218_" filterUnits="userSpaceOnUse" x="523.225" y="317.327" width="45.443" height="428.424">
			<feColorMatrix  type="matrix" values="1 0 0 0 0  0 1 0 0 0  0 0 1 0 0  0 0 0 1 0"/>
		</filter>
	</defs>
	
		<mask maskUnits="userSpaceOnUse" x="523.225" y="317.327" width="45.443" height="428.424" id="SVGID_00000048473856857571142510000008052069337450255244_">
		<g style="filter:url(#Adobe_OpacityMaskFilter_00000081643043230289096160000011095072818505378218_);">
			
				<linearGradient id="SVGID_00000143581766404260514370000010832476737794476703_" gradientUnits="userSpaceOnUse" x1="-0.9324" y1="982.738" x2="-103.933" y2="227.5709" gradientTransform="matrix(1 0 0 1 604.2586 -30.5099)">
				<stop  offset="0" style="stop-color:#FFFFFF"/>
				<stop  offset="1" style="stop-color:#000000"/>
			</linearGradient>
			
				<rect x="523.224" y="317.327" style="fill:url(#SVGID_00000143581766404260514370000010832476737794476703_);" width="45.444" height="428.424"/>
		</g>
	</mask>
	
		<path style="mask:url(#SVGID_00000048473856857571142510000008052069337450255244_);fill-rule:evenodd;clip-rule:evenodd;fill:#FFFFFF;" d="
		M568.669,317.327c0,0-87.879,196.361-19.224,428.424h10.408C559.853,745.751,495.877,587.485,568.669,317.327"/>
	<path style="fill-rule:evenodd;clip-rule:evenodd;" d="M426.815,379.905c104.242,0,188.747,84.505,188.747,188.747
		c0,104.242-84.505,188.748-188.747,188.748c-104.242,0-188.747-84.506-188.747-188.748
		C238.069,464.41,322.573,379.905,426.815,379.905 M477.65,337.512c30.017,6.572,57.9,18.841,82.46,35.617l18.05-18.05
		c3.803-3.803,10.025-3.803,13.828,0l53.23,53.233c3.803,3.803,3.803,10.023,0,13.826l-19.03,19.033
		c16.026,25.008,27.478,53.227,33.173,83.48h25.488c5.381,0,9.78,4.399,9.78,9.78v75.277c0,5.378-4.399,9.779-9.78,9.779h-26.894
		c-6.571,30.017-18.841,57.9-35.615,82.46l18.047,18.049c3.803,3.803,3.803,10.026,0,13.828l-53.229,53.23
		c-3.804,3.803-10.026,3.803-13.829,0l-19.032-19.03c-25.007,16.026-53.228,27.478-83.478,33.172v25.488
		c0,5.381-4.401,9.779-9.779,9.779H385.76c-5.378,0-9.776-4.398-9.776-9.779v-26.893c-30.017-6.572-57.903-18.842-82.463-35.615
		l-18.048,18.047c-3.805,3.803-10.027,3.803-13.83,0l-53.23-53.23c-3.803-3.802-3.803-10.025,0-13.828l19.031-19.032
		c-16.025-25.007-27.479-53.228-33.172-83.481h-25.49c-5.379,0-9.78-4.398-9.78-9.777v-75.279c0-5.378,4.401-9.777,9.78-9.777
		h26.889c6.572-30.019,18.843-57.9,35.622-82.46l-18.05-18.05c-3.802-3.805-3.802-10.027,0-13.831l53.232-53.229
		c3.803-3.803,10.023-3.803,13.826,0l19.037,19.037c25.006-16.022,53.223-27.475,83.475-33.163v-25.504
		c0-5.379,4.399-9.78,9.78-9.78h75.277c5.378,0,9.779,4.401,9.779,9.78V337.512z"/>
	<path style="fill-rule:evenodd;clip-rule:evenodd;fill:#FFFFFF;" d="M426.815,403.205c91.375,0,165.449,74.072,165.449,165.446
		c0,91.375-74.074,165.449-165.449,165.449c-91.374,0-165.446-74.074-165.446-165.449
		C261.369,477.277,335.441,403.205,426.815,403.205"/>
	<path d="M540.272,455.197c-29.031-29.032-69.149-46.991-113.457-46.991c-44.307,0-84.425,17.959-113.454,46.991
		c-29.032,29.029-46.991,69.147-46.991,113.454c0,44.308,17.959,84.426,46.991,113.457C342.39,711.14,382.508,729.1,426.815,729.1
		c44.308,0,84.426-17.963,113.457-46.992c29.029-29.031,46.992-69.148,46.992-113.457
		C587.263,524.344,569.303,484.226,540.272,455.197 M426.815,398.204c47.065,0,89.679,19.079,120.525,49.925
		c30.846,30.843,49.925,73.458,49.925,120.522c0,47.065-19.082,89.679-49.925,120.525c-30.846,30.843-73.46,49.925-120.525,49.925
		c-47.064,0-89.678-19.08-120.522-49.925c-30.846-30.846-49.925-73.46-49.925-120.525c0-47.064,19.079-89.678,49.925-120.522
		C337.137,417.284,379.751,398.204,426.815,398.204z"/>
	<path style="fill-rule:evenodd;clip-rule:evenodd;" d="M502.775,715.664c-22.748,11.775-48.574,18.437-75.959,18.437
		c-25.852,0-50.317-5.937-72.115-16.509c0.085-0.13,8.038-12.333,45.12-2.807c37.283,9.579,30.81-3.108,39.872-8.027
		c9.062-4.921,15.532-8.544,25.113,1.812C474.383,718.926,500.869,703.099,502.775,715.664"/>
	<path style="fill-rule:evenodd;clip-rule:evenodd;" d="M468.704,408.56c71.089,18.55,123.56,83.189,123.56,160.091
		c0,38.198-12.952,73.366-34.693,101.37c-0.227-0.265-9.853-11.285-26.738-0.542c-17.086,10.873-30.032,9.837-30.032,9.837
		s5.18-4.141,5.18-35.209c0-31.068,22.783-30.032,52.814-33.139c30.031-3.106,17.606-21.229,22.784-37.8
		c5.176-16.571-9.321-7.767-21.232-19.675c-11.908-11.908-54.366,2.07-42.975-21.746c11.392-23.818,7.767-10.358-19.678-32.105
		c-27.441-21.747,0.52-17.086,10.356-36.246c9.836-19.158-1.035-24.853-25.89-32.619C457.5,423.071,468.529,408.782,468.704,408.56"
		/>
	<path style="fill-rule:evenodd;clip-rule:evenodd;" d="M426.815,403.205c10.845,0,21.444,1.056,31.708,3.047
		c-0.213,0.475-6.968,15.024-33.966,11.967c-27.444-3.109-46.087-2.07-47.122,11.908c-1.035,13.98-17.603,8.804-16.568,24.337
		c1.034,15.534,22.783,14.495,32.102,39.35c9.321,24.858-20.195,35.731-5.696,62.655c14.499,26.927-3.106,21.234,2.589,59.549
		c5.698,38.317,11.393,39.354,11.393,39.354s-47.122,19.158-39.355-34.692c7.767-53.851-30.55-38.837-45.564-53.336
		c-15.017-14.497,10.354-54.368,5.178-67.313c-5.178-12.943-32.622-17.603-31.07,12.427c1.545,29.862-26.921,31.518-27.245,31.537
		C275.108,464.318,343.822,403.205,426.815,403.205"/>
	<path style="fill-rule:evenodd;clip-rule:evenodd;" d="M395.17,437.764c0,0-16.569-3.623-10.356,14.24
		c6.212,17.865-1.555,15.274,11.908,24.337c13.465,9.062,6.99,17.603,3.626,29.513c-3.366,11.91-2.591,23.818,10.613,31.585
		c13.205,7.768,18.902,6.993,9.322-12.425c-9.58-19.42-6.21-6.992,2.072-23.301c8.284-16.311,18.122-24.08,3.366-27.187
		c-14.759-3.106-28.738-0.777-23.303-11.391c5.438-10.615,17.348-17.605,17.348-17.605S415.104,424.562,395.17,437.764"/>
	<path style="fill-rule:evenodd;clip-rule:evenodd;fill:#FFFFFF;" d="M468.704,408.56c71.089,18.55,123.558,83.192,123.558,160.094
		c0,38.195-12.943,73.37-34.684,101.372c-14.681,18.91-33.375,34.55-54.801,45.645c-22.748,11.778-48.576,18.43-75.961,18.43
		c-25.852,0-50.319-5.932-72.118-16.505c-55.24-26.797-93.331-83.421-93.331-148.942c0-8.381,0.624-16.616,1.826-24.657
		c11.906-79.682,80.629-140.792,163.623-140.792c10.845,0,21.447,1.042,31.708,3.033
		C461.956,406.907,465.353,407.679,468.704,408.56 M615.562,568.654c0-104.242-84.505-188.749-188.747-188.749
		c-104.242,0-188.744,84.508-188.744,188.749c0,3.912,0.117,7.796,0.351,11.648c6.017,98.813,88.064,177.097,188.393,177.097
		c100.33,0,182.377-78.283,188.393-177.097C615.444,576.45,615.562,572.565,615.562,568.654z"/>
	<path style="fill-rule:evenodd;clip-rule:evenodd;fill:#FFFFFF;" d="M593.028,494.2h137.931c39.9,0,72.539,32.643,72.539,72.541
		c0,39.898-32.64,72.541-72.539,72.541H593.028c-39.898,0-72.539-32.643-72.539-72.541C520.488,526.843,553.13,494.2,593.028,494.2"
		/>
	<path d="M730.959,497.2H593.028c-19.12,0-36.508,7.828-49.111,20.431c-12.603,12.605-20.428,29.991-20.428,49.11
		c0,19.12,7.826,36.506,20.428,49.11c12.603,12.602,29.991,20.431,49.111,20.431h137.931c19.12,0,36.506-7.826,49.111-20.428
		c12.602-12.603,20.428-29.993,20.428-49.113c0-19.119-7.826-36.51-20.428-49.113C767.464,505.025,750.078,497.2,730.959,497.2
		 M593.028,491.2h137.931c20.776,0,39.664,8.499,53.353,22.186c13.688,13.689,22.186,32.579,22.186,53.355
		c0,20.776-8.498,39.667-22.186,53.355c-13.689,13.687-32.578,22.186-53.353,22.186H593.028c-20.776,0-39.664-8.499-53.353-22.188
		c-13.687-13.688-22.186-32.577-22.186-53.353c0-20.776,8.499-39.663,22.186-53.353C553.363,499.699,572.252,491.2,593.028,491.2z"
		/>
	<path style="fill-rule:evenodd;clip-rule:evenodd;" d="M572.677,523.316h142.879c6.788,0,12.34,5.551,12.34,12.34v36.111
		c0,6.789-5.552,12.34-12.34,12.34H572.677c-6.789,0-12.34-5.551-12.34-12.34v-36.111
		C560.337,528.867,565.888,523.316,572.677,523.316"/>
	<path style="fill-rule:evenodd;clip-rule:evenodd;" d="M788.518,513.714c17.211,0,31.165,18.869,31.165,42.144
		c0,23.275-13.954,42.144-31.165,42.144c-17.21,0-31.162-18.869-31.162-42.144C757.357,532.583,771.308,513.714,788.518,513.714"/>
	<path style="fill-rule:evenodd;clip-rule:evenodd;" d="M536.158,513.714c2.239,0,4.421,0.319,6.527,0.928
		c-13.663,13.212-22.196,31.706-22.196,52.098c0,10.406,2.223,20.318,6.215,29.284c-12.588-5.414-21.708-21.349-21.708-40.167
		C504.995,532.583,518.946,513.714,536.158,513.714"/>
	<path style="fill-rule:evenodd;clip-rule:evenodd;fill:#FFFFFF;" d="M599.668,534.454c7.048,0,12.765,7.873,12.765,17.582
		c0,9.712-5.717,17.585-12.765,17.585c-7.052,0-12.768-7.873-12.768-17.585C586.9,542.327,592.616,534.454,599.668,534.454"/>
	<path style="fill-rule:evenodd;clip-rule:evenodd;fill:#FFFFFF;" d="M675.785,532.753c8.038,0,14.556,8.977,14.556,20.051
		c0,11.072-6.518,20.05-14.556,20.05c-8.042,0-14.558-8.978-14.558-20.05C661.227,541.73,667.743,532.753,675.785,532.753"/>
	<path style="fill-rule:evenodd;clip-rule:evenodd;fill:#FFFFFF;" d="M736.65,639.055v98.216c0,41.063-33.593,74.655-74.655,74.655
		h-0.003c-41.062,0-74.655-33.593-74.655-74.655v-98.216c1.878,0.149,3.775,0.224,5.691,0.224h137.931
		C732.872,639.279,734.769,639.204,736.65,639.055"/>
	<path d="M733.649,737.271v-95.048l-2.691,0.057H593.028l-2.691-0.057v95.048c0,19.701,8.064,37.618,21.049,50.606
		c12.986,12.985,30.903,21.049,50.606,21.049c19.703,0,37.62-8.064,50.608-21.049C725.585,774.889,733.649,756.971,733.649,737.271
		 M739.647,639.055l0.003,98.216c0,21.357-8.738,40.777-22.807,54.848c-14.072,14.069-33.492,22.807-54.848,22.807
		c-21.362,0-40.779-8.735-54.851-22.807c-14.069-14.072-22.807-33.492-22.807-54.848v-98.216c0-1.656,1.344-3,3-3l2.948,0.18
		l2.743,0.044h137.931l2.741-0.044l2.728-0.168c1.648-0.12,3.089,1.117,3.21,2.767L739.647,639.055z"/>
	<path style="fill-rule:evenodd;clip-rule:evenodd;" d="M645.976,655.857h0.003c19.704,0,35.821,16.117,35.821,35.821v45.403
		c0,19.701-16.117,35.821-35.821,35.821h-0.003c-19.703,0-35.819-16.12-35.819-35.821v-45.403
		C610.156,671.975,626.273,655.857,645.976,655.857"/>
	<polygon style="fill-rule:evenodd;clip-rule:evenodd;fill:#FFFFFF;" points="587.337,674.492 558.792,703.037 541.075,685.319 
		587.337,639.055 	"/>
	<path d="M558.792,698.795l25.545-25.545v-26.953l-39.019,39.022L558.792,698.795z M589.458,676.614l-28.544,28.545
		c-1.17,1.169-3.074,1.169-4.242,0l-17.717-17.719c-1.169-1.169-1.169-3.073,0-4.243l46.261-46.263c1.17-1.17,3.073-1.17,4.242,0
		c0.584,0.586,0.877,1.353,0.877,2.121l0.002,35.438C590.337,675.321,590.001,676.071,589.458,676.614z"/>
	
		<rect x="529.296" y="631.831" transform="matrix(0.7071 -0.7071 0.7071 0.7071 -313.8977 578.8553)" style="fill-rule:evenodd;clip-rule:evenodd;fill:#FFFFFF;" width="25.056" height="73.045"/>
	<path d="M558.792,698.795l13.475-13.473l-47.408-47.41l-13.476,13.477L558.792,698.795z M578.63,687.442l-17.716,17.717
		c-1.17,1.169-3.074,1.169-4.242,0l-51.652-51.65c-1.169-1.169-1.169-3.073,0-4.242l17.719-17.718c1.169-1.17,3.073-1.17,4.242,0
		L578.63,683.2C579.799,684.369,579.799,686.273,578.63,687.442z"/>
	
		<rect x="777.143" y="649.069" transform="matrix(0.866 -0.5 0.5 0.866 -221.7964 495.5224)" style="fill-rule:evenodd;clip-rule:evenodd;fill:#FFFFFF;" width="73.046" height="25.056"/>
	<path d="M779.858,670.106l9.539,16.516l58.079-33.536l-9.536-16.517L779.858,670.106z M785.713,692.209l-12.529-21.699
		c-0.827-1.429-0.34-3.262,1.088-4.088l63.26-36.525c1.429-0.827,3.262-0.34,4.089,1.089l12.527,21.711
		c0.817,1.427,0.331,3.251-1.091,4.073l-63.256,36.529C788.372,694.125,786.539,693.638,785.713,692.209z"/>
	<path style="fill-rule:evenodd;clip-rule:evenodd;" d="M558.792,662.25c11.264,0,20.395,9.132,20.395,20.393
		c0,11.263-9.132,20.395-20.395,20.395c-11.26,0-20.392-9.132-20.392-20.395C538.399,671.381,547.531,662.25,558.792,662.25"/>
	<path style="fill-rule:evenodd;clip-rule:evenodd;" d="M515.998,622.135c11.263,0,20.395,9.129,20.395,20.393
		s-9.133,20.395-20.395,20.395c-11.263,0-20.393-9.132-20.393-20.395S504.735,622.135,515.998,622.135"/>
	<path style="fill-rule:evenodd;clip-rule:evenodd;fill:#FFFFFF;" d="M788.301,690.707l17.716-17.715l-41.827-41.828
		c-8.374,4.352-17.688,7.115-27.541,7.89L788.301,690.707z"/>
	<path d="M808.139,675.114l-17.717,17.714c-1.169,1.169-3.073,1.169-4.243,0l-51.651-51.652c-0.487-0.489-0.811-1.146-0.868-1.888
		c-0.127-1.649,1.106-3.095,2.754-3.222c4.666-0.366,9.211-1.2,13.573-2.449c4.425-1.267,8.684-2.972,12.714-5.057
		c1.146-0.652,2.634-0.492,3.61,0.484l41.828,41.828C809.308,672.041,809.308,673.945,808.139,675.114 M788.301,686.464
		l13.474-13.472l-38.177-38.177c-3.82,1.843-7.822,3.378-11.969,4.566c-2.773,0.794-5.613,1.432-8.504,1.907L788.301,686.464z"/>
	<path style="fill-rule:evenodd;clip-rule:evenodd;" d="M788.301,649.919c11.263,0,20.393,9.132,20.393,20.395
		s-9.13,20.393-20.393,20.393c-11.263,0-20.395-9.13-20.395-20.393S777.039,649.919,788.301,649.919"/>
	<path style="fill-rule:evenodd;clip-rule:evenodd;" d="M845.297,622.94c11.263,0,20.392,9.133,20.392,20.396
		c0,11.263-9.13,20.393-20.392,20.393c-11.263,0-20.396-9.13-20.396-20.393C824.901,632.072,834.034,622.94,845.297,622.94"/>
	<path style="fill-rule:evenodd;clip-rule:evenodd;fill:#FFFFFF;" d="M850.378,593.251h8.525c4.285,0,7.791,3.506,7.791,7.791
		v48.948c0,4.285-3.506,7.79-7.791,7.79h-8.525c-4.285,0-7.791-3.505-7.791-7.79v-48.948
		C842.587,596.757,846.093,593.251,850.378,593.251"/>
	<path d="M858.902,594.25h-8.525c-1.869,0-3.57,0.763-4.795,1.992c-1.233,1.231-1.996,2.932-1.996,4.8v48.948
		c0,1.866,0.766,3.564,1.996,4.795c1.226,1.233,2.927,1.996,4.795,1.996h8.525c1.867,0,3.565-0.765,4.796-1.996
		c1.23-1.231,1.996-2.929,1.996-4.795v-48.948c0-1.868-0.763-3.569-1.991-4.795C862.467,595.016,860.769,594.25,858.902,594.25
		 M850.378,592.252h8.525c2.417,0,4.618,0.992,6.208,2.583c1.589,1.594,2.582,3.798,2.582,6.207v48.948
		c0,2.417-0.992,4.617-2.582,6.208c-1.59,1.59-3.791,2.582-6.208,2.582h-8.525c-2.409,0-4.614-0.992-6.206-2.584
		c-1.591-1.588-2.584-3.788-2.584-6.205v-48.948c0-2.409,0.99-4.611,2.582-6.203C845.767,593.242,847.969,592.252,850.378,592.252z"
		/>
	<polygon style="fill-rule:evenodd;clip-rule:evenodd;" points="857.561,538.521 857.561,593.251 851.719,593.251 851.719,538.521 
		847.701,533.885 847.701,524.632 851.583,512.171 857.699,512.171 861.579,524.632 861.579,533.885 	"/>
	<path style="fill-rule:evenodd;clip-rule:evenodd;" d="M849.466,602.261L849.466,602.261c1.006,0,1.826,0.819,1.826,1.826v42.857
		c0,1.006-0.82,1.826-1.826,1.826c-1.007,0-1.826-0.82-1.826-1.826v-42.857C847.64,603.081,848.459,602.261,849.466,602.261"/>
	<path style="fill-rule:evenodd;clip-rule:evenodd;" d="M859.814,602.261L859.814,602.261c1.007,0,1.826,0.819,1.826,1.826v42.857
		c0,1.006-0.82,1.826-1.826,1.826c-1.006,0-1.826-0.82-1.826-1.826v-42.857C857.988,603.081,858.808,602.261,859.814,602.261"/>
	<path style="fill-rule:evenodd;clip-rule:evenodd;fill:#FFFFFF;" d="M515.186,659.235c2.874-1.661,6.55-0.676,8.208,2.199
		c1.661,2.874,0.676,6.55-2.199,8.211c-2.875,1.661-6.551,0.676-8.211-2.199C511.326,664.571,512.311,660.896,515.186,659.235
		 M475.531,552.397c7.016,1.732,13.347,6.208,17.244,12.962c5.597,9.69,4.63,21.368-1.518,29.889l0.059,0.099l36.638,63.456
		c3.099,5.372,1.243,12.3-4.127,15.399c-5.369,3.102-12.3,1.245-15.399-4.124L471.79,606.62l-0.055-0.099
		c-10.455,1.063-21.049-3.938-26.646-13.63c-3.869-6.702-4.599-14.357-2.646-21.26l4.616,7.998l5.526,9.567h11.047h11.048
		l5.523-9.567l5.525-9.569l-5.525-9.567L475.531,552.397z"/>
	<path d="M519.208,660.643c-0.971-0.26-2.051-0.151-2.981,0.385c-0.938,0.541-1.573,1.42-1.834,2.393
		c-0.26,0.973-0.151,2.05,0.385,2.986c0.546,0.938,1.422,1.571,2.391,1.83c0.974,0.26,2.05,0.149,2.986-0.388
		c0.938-0.545,1.571-1.419,1.83-2.39c0.26-0.973,0.149-2.052-0.387-2.986C521.058,661.534,520.182,660.903,519.208,660.643
		 M514.146,657.44c1.942-1.119,4.146-1.348,6.135-0.818c1.991,0.534,3.789,1.831,4.906,3.77c1.12,1.94,1.352,4.148,0.82,6.14
		c-0.536,1.996-1.835,3.793-3.771,4.911c-1.941,1.115-4.148,1.347-6.139,0.815c-1.996-0.537-3.794-1.836-4.911-3.77
		c-1.114-1.944-1.344-4.148-0.813-6.139C510.91,660.355,512.212,658.557,514.146,657.44z M484.245,558.78
		c-1.283-0.963-2.647-1.797-4.077-2.497l7.96,13.777l-12.255,21.219H451.39l-7.863-13.625c-0.09,1.538-0.043,3.09,0.148,4.635
		c0.409,3.283,1.463,6.533,3.211,9.562c2.551,4.411,6.216,7.774,10.429,9.928c4.351,2.226,9.301,3.175,14.217,2.674l1.364-0.137
		c11.861,21.654,24.954,43.285,37.33,64.719c1.26,2.193,3.309,3.664,5.586,4.272c2.282,0.609,4.789,0.358,6.969-0.898
		c2.187-1.266,3.666-3.314,4.276-5.591c0.612-2.28,0.358-4.791-0.898-6.976c-12.427-21.524-24.68-43.363-37.379-64.703l0.793-1.103
		c2.885-3.997,4.538-8.758,4.786-13.646c0.237-4.734-0.839-9.586-3.38-13.989C489.214,563.336,486.903,560.778,484.245,558.78z
		 M476.027,550.38c3.839,0.948,7.498,2.668,10.708,5.079c3.09,2.327,5.78,5.303,7.836,8.861c2.964,5.126,4.219,10.772,3.94,16.273
		c-0.265,5.23-1.919,10.337-4.801,14.747l36.04,62.422c1.838,3.191,2.208,6.836,1.325,10.129c-0.886,3.3-3.028,6.272-6.203,8.107
		c-3.189,1.843-6.836,2.211-10.133,1.33c-3.286-0.878-6.246-3.009-8.086-6.177l-36.067-62.457
		c-5.253,0.288-10.499-0.836-15.162-3.219c-4.907-2.511-9.175-6.418-12.133-11.542c-2.043-3.553-3.278-7.337-3.751-11.138
		c-0.492-3.957-0.168-7.946,0.9-11.726l1.342-4.736l11.997,20.78h19.708l9.841-17.053l-12.03-20.847L476.027,550.38z"/>
	<path style="fill-rule:evenodd;clip-rule:evenodd;" d="M486.166,608.972L486.166,608.972c0.864-0.498,1.978-0.201,2.476,0.662
		l25.178,43.611c0.498,0.864,0.2,1.977-0.664,2.476v0.002c-0.865,0.499-1.978,0.199-2.475-0.663l-25.18-43.611
		C485.004,610.583,485.301,609.471,486.166,608.972"/>
</g>
</svg>
